HIERARCHY
ROOT Hips
{
	OFFSET 0.00000 0.00000 0.00000
	CHANNELS 6 Xposition Yposition Zposition Zrotation Yrotation Xrotation 
	JOINT LHipJoint
	{
		OFFSET 0 0 0
		CHANNELS 3 Zrotation Yrotation Xrotation
		JOINT LeftUpLeg
		{
			OFFSET 1.62329 -1.80800 0.67318
			CHANNELS 3 Zrotation Yrotation Xrotation
			JOINT LeftLeg
			{
				OFFSET 2.57139 -7.06484 0.00000
				CHANNELS 3 Zrotation Yrotation Xrotation
				JOINT LeftFoot
				{
					OFFSET 2.52017 -6.92413 0.00000
					CHANNELS 3 Zrotation Yrotation Xrotation
					JOINT LeftToeBase
					{
						OFFSET 0.23295 -0.64001 2.10214
						CHANNELS 3 Zrotation Yrotation Xrotation
						End Site
						{
							OFFSET 0.00000 -0.00000 1.10139
						}
					}
				}
			}
		}
	}
	JOINT RHipJoint
	{
		OFFSET 0 0 0
		CHANNELS 3 Zrotation Yrotation Xrotation
		JOINT RightUpLeg
		{
			OFFSET -1.48061 -1.80800 0.67318
			CHANNELS 3 Zrotation Yrotation Xrotation
			JOINT RightLeg
			{
				OFFSET -2.63258 -7.23296 0.00000
				CHANNELS 3 Zrotation Yrotation Xrotation
				JOINT RightFoot
				{
					OFFSET -2.54779 -7.00000 0.00000
					CHANNELS 3 Zrotation Yrotation Xrotation
					JOINT RightToeBase
					{
						OFFSET -0.23067 -0.63376 2.12161
						CHANNELS 3 Zrotation Yrotation Xrotation
						End Site
						{
							OFFSET -0.00000 -0.00000 1.11000
						}
					}
				}
			}
		}
	}
	JOINT LowerBack
	{
		OFFSET 0 0 0
		CHANNELS 3 Zrotation Yrotation Xrotation
		JOINT Spine
		{
			OFFSET -0.02108 2.07573 -0.16981
			CHANNELS 3 Zrotation Yrotation Xrotation
			JOINT Spine1
			{
				OFFSET 0.05070 2.08439 -0.03141
				CHANNELS 3 Zrotation Yrotation Xrotation
				JOINT Neck
				{
					OFFSET 0 0 0
					CHANNELS 3 Zrotation Yrotation Xrotation
					JOINT Neck1
					{
						OFFSET -0.10731 1.60408 0.31370
						CHANNELS 3 Zrotation Yrotation Xrotation
						JOINT Head
						{
							OFFSET 0.08411 1.65679 -0.30822
							CHANNELS 3 Zrotation Yrotation Xrotation
							End Site
							{
								OFFSET 0.03911 1.69149 -0.14146
							}
						}
					}
				}
				JOINT LeftShoulder
				{
					OFFSET 0 0 0
					CHANNELS 3 Zrotation Yrotation Xrotation
					JOINT LeftArm
					{
						OFFSET 3.52315 0.73219 -0.54694
						CHANNELS 3 Zrotation Yrotation Xrotation
						JOINT LeftForeArm
						{
							OFFSET 5.32462 -0.00000 -0.00000
							CHANNELS 3 Zrotation Yrotation Xrotation
							JOINT LeftHand
							{
								OFFSET 3.48402 -0.00000 -0.00000
								CHANNELS 3 Zrotation Yrotation Xrotation
								JOINT LeftFingerBase
								{
									OFFSET 0 0 0
									CHANNELS 3 Zrotation Yrotation Xrotation
									JOINT LeftHandIndex1
									{
										OFFSET 0.57248 -0.00000 -0.00000
										CHANNELS 3 Zrotation Yrotation Xrotation
										End Site
										{
											OFFSET 0.46154 -0.00000 -0.00000
										}
									}
								}
								JOINT LThumb
								{
									OFFSET 0 0 0
									CHANNELS 3 Zrotation Yrotation Xrotation
									End Site
									{
										OFFSET 0.46859 -0.00000 0.46859
									}
								}
							}
						}
					}
				}
				JOINT RightShoulder
				{
					OFFSET 0 0 0
					CHANNELS 3 Zrotation Yrotation Xrotation
					JOINT RightArm
					{
						OFFSET -3.41766 0.93592 -0.10019
						CHANNELS 3 Zrotation Yrotation Xrotation
						JOINT RightForeArm
						{
							OFFSET -5.33589 -0.00000 -0.00000
							CHANNELS 3 Zrotation Yrotation Xrotation
							JOINT RightHand
							{
								OFFSET -3.64134 -0.00000 -0.00000
								CHANNELS 3 Zrotation Yrotation Xrotation
								JOINT RightFingerBase
								{
									OFFSET 0 0 0
									CHANNELS 3 Zrotation Yrotation Xrotation
									JOINT RightHandIndex1
									{
										OFFSET -0.73481 -0.00000 -0.00000
										CHANNELS 3 Zrotation Yrotation Xrotation
										End Site
										{
											OFFSET -0.59242 -0.00000 -0.00000
										}
									}
								}
								JOINT RThumb
								{
									OFFSET 0 0 0
									CHANNELS 3 Zrotation Yrotation Xrotation
									End Site
									{
										OFFSET -0.60147 -0.00000 0.60147
									}
								}
							}
						}
					}
				}
			}
		}
	}
}
MOTION
Frames: 8
Frame Time: .0083333
0.1336 17.7907 12.0633 0 0 0 0 0 0 -21 0 0 0 0 0 0 0 0 0 0 0 0 0 0 21 0 0 0 0 0 0 0 0 0 0 0 0 0 0 0 0 0 0 0 0 0 0 -16 0 0 21 0 0 11 0 0 0 -8 0 0 0 0 0 0 0 0 0 0 0 0 0 0 0 0 0 0 0 0 8 0 0 0 0 0 0 0 0 0 0 0 0 0 0 0 0 0
0.1336 17.7907 12.0633 177.3040 -3.4790 -170.8100 0.0000 0.0000 0.0000 -22.5707 -10.8168 -9.9749 1.3938 7.4690 21.1126 0.6465 -3.1754 -14.4410 0.0795 -1.8190 -5.0057 0.0000 0.0000 0.0000 20.4752 9.7163 -15.2846 -2.7905 -10.3479 30.1108 -1.2810 5.0355 -20.3272 -0.6295 -5.0767 14.1274 -4.3021 -1.3286 -1.2550 1.7506 -1.7702 -1.4926 4.2033 -0.8544 -0.6471 -9.0766 -2.6436 -14.3113 0.2487 4.5697 40.4345 3.0926 2.2213 17.1326 0.0000 0.0000 0.0000 -88.2589 2.9448 17.5172 15.6793 -25.0839 -3.5089 -0.0000 -0.0000 4.3948 19.2948 23.3344 7.8949 -7.1250 0.0000 -0.0000 -10.4202 54.2409 -2.3862 0.0000 0.0000 0.0000 83.7187 -3.7601 17.7787 -18.4373 28.7135 -4.7575 0.0000 0.0000 18.2002 -17.2552 3.6079 -1.1198 7.1250 -0.0000 -0.0000 7.0992 -26.1913 3.2604
0.1348 17.7924 12.0650 177.3050 -3.5204 -170.8120 0.0000 0.0000 0.0000 -22.5594 -10.8017 -9.9682 1.3888 7.4562 21.0741 0.6417 -3.2170 -14.3799 0.0739 -1.7539 -4.8260 0.0000 0.0000 0.0000 20.4846 9.6776 -15.3066 -2.7932 -10.3525 30.1260 -1.2832 5.0186 -20.3472 -0.6050 -4.9789 13.8483 -4.3222 -1.3333 -1.2174 1.7582 -1.7777 -1.4944 4.2235 -0.8572 -0.6684 -9.0984 -2.6544 -14.3649 0.2806 4.5775 40.5042 3.1183 2.2253 17.1838 -0.0000 -0.0000 0.0000 -88.2697 2.9342 17.4668 15.6694 -25.0703 -3.5047 -0.0000 -0.0000 4.4240 19.2315 23.4164 7.8931 -7.1250 0.0000 -0.0000 -10.5193 54.3118 -2.4275 -0.0000 -0.0000 0.0000 83.6803 -3.7534 17.8453 -18.4183 28.6895 -4.7484 0.0000 0.0000 18.2030 -17.3317 3.6415 -1.1355 7.1250 -0.0000 -0.0000 7.0397 -26.1550 3.2387
0.1354 17.7996 12.0670 177.2580 -3.5465 -170.8140 0.0000 0.0000 0.0000 -22.6313 -10.5857 -10.0083 1.3808 7.4355 21.0120 0.6377 -3.3259 -14.3211 0.1059 -2.0985 -5.7778 0.0000 0.0000 0.0000 20.4356 9.6953 -15.3237 -2.8004 -10.3647 30.1661 -1.2926 4.9475 -20.4310 -0.5636 -4.8082 13.3624 -4.3584 -1.3336 -1.1251 1.7463 -1.7822 -1.5254 4.2345 -0.8565 -0.7511 -9.1238 -2.6674 -14.3477 0.2871 4.5605 40.4984 3.1221 2.2164 17.1770 -0.0000 -0.0000 0.0000 -88.2955 2.9896 17.3938 15.6845 -25.0910 -3.5111 -0.0000 -0.0000 4.5053 19.1504 23.4685 7.8739 -7.1250 0.0000 -0.0000 -10.6240 54.3489 -2.4618 -0.0000 -0.0000 0.0000 83.6392 -3.7891 17.8389 -18.3950 28.6600 -4.7372 0.0000 0.0000 18.2402 -17.3446 3.7760 -1.1783 7.1250 -0.0000 -0.0000 7.0235 -26.0150 3.2544
0.1355 17.7956 12.0677 177.2550 -3.5485 -170.8400 0.0000 0.0000 0.0000 -22.6129 -10.7591 -9.9294 1.3806 7.4349 21.0104 0.6374 -3.2843 -14.3229 0.0758 -1.7762 -4.8875 0.0000 0.0000 0.0000 20.4312 9.7195 -15.2922 -2.7987 -10.3618 30.1565 -1.2934 4.9437 -20.4378 -0.5732 -4.8487 13.4775 -4.3476 -1.3169 -1.1140 1.7248 -1.7591 -1.5015 4.2062 -0.8456 -0.7360 -9.1051 -2.6874 -14.3543 0.2425 4.5419 40.4925 3.0954 2.2053 17.1793 -0.0000 0.0000 0.0000 -88.2662 2.9868 17.3938 15.7001 -25.1123 -3.5177 -0.0000 -0.0000 4.5382 19.0400 23.5349 7.8462 -7.1250 0.0000 -0.0000 -10.7651 54.3949 -2.5071 -0.0000 0.0000 0.0000 83.6672 -3.7902 17.7180 -18.4066 28.6746 -4.7427 0.0000 0.0000 18.4476 -17.3211 3.9265 -1.2234 7.1250 -0.0000 -0.0000 7.0343 -25.8590 3.2852
0.1364 17.7863 12.0686 177.3130 -3.5677 -170.8540 0.0000 0.0000 0.0000 -22.6192 -10.2917 -10.0918 1.3757 7.4224 20.9730 0.6320 -3.2962 -14.2583 0.1706 -2.6607 -7.3354 0.0000 0.0000 0.0000 20.5101 9.6943 -15.3279 -2.8075 -10.3767 30.2055 -1.2902 4.9245 -20.4135 -0.5677 -4.8254 13.4112 -4.2952 -1.3199 -1.1456 1.7422 -1.7613 -1.4700 4.1933 -0.8487 -0.6865 -9.0713 -2.6844 -14.3469 0.1557 4.5670 40.4665 3.0531 2.2091 17.1666 -0.0000 -0.0000 0.0000 -88.2657 2.9367 17.3691 15.6820 -25.0875 -3.5100 -0.0000 -0.0000 4.5480 18.9141 23.5801 7.8050 -7.1250 0.0000 -0.0000 -10.9127 54.4162 -2.5478 -0.0000 -0.0000 0.0000 83.6681 -3.7711 17.6722 -18.4346 28.7100 -4.7562 0.0000 0.0000 18.5761 -17.2509 3.7968 -1.1780 7.1250 -0.0000 -0.0000 7.0933 -25.9951 3.2905
0.1380 17.7980 12.0697 177.2720 -3.5927 -170.8310 0.0000 0.0000 0.0000 -22.6010 -10.5809 -9.9955 1.3764 7.4243 20.9785 0.6328 -3.3374 -14.2630 0.1007 -2.0459 -5.6326 0.0000 0.0000 0.0000 20.4738 9.6764 -15.3384 -2.8031 -10.3693 30.1812 -1.2879 4.9029 -20.3968 -0.5772 -4.8653 13.5247 -4.3632 -1.3336 -1.1223 1.7425 -1.7806 -1.4867 4.2328 -0.8569 -0.7129 -9.0509 -2.6652 -14.2928 0.1279 4.5947 40.4388 3.0391 2.2230 17.1370 -0.0000 -0.0000 0.0000 -88.2865 2.9468 17.3034 15.6698 -25.0708 -3.5049 -0.0000 -0.0000 4.5739 18.9019 23.6112 7.8092 -7.1250 0.0000 -0.0000 -10.9387 54.4453 -2.5618 -0.0000 -0.0000 0.0000 83.6462 -3.7584 17.6724 -18.4098 28.6787 -4.7442 0.0000 0.0000 18.6100 -17.3015 3.5840 -1.1155 7.1250 -0.0000 -0.0000 7.0653 -26.2153 3.2407
0.1382 17.7890 12.0702 177.2230 -3.5802 -170.8070 0.0000 0.0000 0.0000 -22.7119 -10.2294 -10.1513 1.3716 7.4118 20.9411 0.6276 -3.3417 -14.2018 0.1939 -2.8357 -7.8216 0.0000 0.0000 0.0000 20.4062 9.7335 -15.3763 -2.8152 -10.3897 30.2483 -1.2912 4.9517 -20.4191 -0.6178 -5.0303 13.9951 -4.4246 -1.3338 -1.1449 1.7382 -1.7800 -1.4967 4.2625 -0.8561 -0.7090 -9.0771 -2.6597 -14.2472 0.1215 4.6135 40.4257 3.0427 2.2289 17.1176 -0.0000 0.0000 0.0000 -88.3011 2.9983 17.3208 15.6890 -25.0971 -3.5130 -0.0000 -0.0000 4.4812 18.9471 23.4949 7.7931 -7.1250 0.0000 -0.0000 -10.8424 54.3365 -2.5100 -0.0000 0.0000 0.0000 83.6293 -3.7480 17.6943 -18.3807 28.6419 -4.7303 0.0000 0.0000 18.5209 -17.4310 3.4567 -1.0845 7.1250 -0.0000 -0.0000 6.9735 -26.3453 3.1766
